<svg viewBox="0 -0.5 32 32" width="32" height="32" shape-rendering="crispedges" xmlns="http://www.w3.org/2000/svg">
    <metadata>Generated for Pixelmoji (32x32 pixel conversion)</metadata>
    <path stroke="#ed1c24" d="M5 0h2M25 0h2M5 1h1M7 1h1M24 1h1M26 1h1M5 2h1M7 2h1M23 2h1M26 2h1M6 3h1M8 3h1M22 3h1M25 3h1M7 4h1M9 4h2M21 4h1M24 4h1M1 5h1M7 5h1M11 5h3M18 5h3M23 5h1M30 5h1M0 6h1M2 6h2M8 6h1M14 6h4M22 6h2M28 6h2M31 6h1M1 7h1M4 7h1M9 7h2M21 7h1M27 7h1M30 7h1M2 8h1M5 8h1M11 8h3M18 8h3M25 8h2M28 8h2M3 9h1M6 9h1M14 9h4M25 9h1M27 9h1M4 10h1M7 10h1M24 10h1M27 10h1M5 11h1M8 11h1M23 11h1M26 11h1M5 12h1M8 12h1M23 12h1M26 12h1M5 13h1M8 13h1M23 13h1M26 13h1M6 14h1M9 14h1M22 14h1M25 14h1M6 15h1M9 15h1M22 15h1M25 15h1M6 16h1M9 16h1M22 16h1M25 16h1M6 17h1M9 17h1M22 17h1M25 17h1M5 18h1M8 18h1M23 18h1M26 18h1M5 19h1M8 19h1M23 19h1M26 19h1M5 20h1M8 20h1M23 20h1M26 20h1M4 21h1M7 21h1M24 21h1M27 21h1M3 22h1M6 22h1M14 22h4M25 22h1M28 22h1M2 23h1M5 23h1M11 23h3M18 23h3M26 23h1M29 23h1M1 24h1M4 24h1M10 24h1M21 24h2M27 24h1M30 24h1M0 25h1M2 25h2M9 25h1M14 25h4M23 25h1M28 25h2M31 25h1M1 26h1M8 26h1M11 26h3M18 26h3M24 26h1M30 26h1M7 27h1M10 27h1M21 27h2M24 27h1M6 28h1M9 28h1M23 28h1M25 28h1M6 29h1M8 29h1M24 29h1M26 29h1M5 30h1M7 30h1M24 30h1M26 30h1M6 31h1M25 31h2" />
    <path stroke="#ff413e" d="M6 1h1M25 1h1M6 2h1M24 2h2M7 3h1M23 3h2M8 4h1M22 4h2M8 5h3M21 5h2M1 6h1M9 6h5M18 6h4M30 6h1M2 7h2M11 7h10M28 7h2M3 8h2M14 8h4M27 8h1M4 9h2M26 9h1M5 10h2M25 10h2M6 11h2M24 11h2M6 12h2M24 12h2M6 13h2M24 13h2M7 14h2M23 14h2M7 15h2M23 15h2M7 16h2M23 16h2M7 17h2M23 17h2M6 18h2M24 18h2M6 19h2M24 19h2M6 20h2M24 20h2M5 21h2M25 21h2M4 22h2M26 22h2M3 23h2M14 23h4M27 23h2M2 24h2M11 24h10M28 24h2M1 25h1M10 25h4M18 25h5M30 25h1M9 26h2M21 26h3M8 27h2M23 27h1M7 28h2M24 28h1M7 29h1M25 29h1M6 30h1M25 30h1" />
</svg>
