<svg viewBox="0 -0.5 32 32" width="32" height="32" shape-rendering="crispedges" xmlns="http://www.w3.org/2000/svg">
    <metadata>Generated for Pixelmoji (32x32 pixel conversion)</metadata>
    <path stroke="#2700ff" d="M1 1h30M1 2h1M30 2h1M1 3h1M30 3h1M1 4h1M30 4h1M1 5h1M30 5h1M1 6h1M30 6h1M1 7h1M30 7h1M1 8h1M30 8h1M1 9h1M30 9h1M1 10h1M30 10h1M1 11h1M30 11h1M1 12h1M30 12h1M1 13h2M29 13h2M1 14h2M29 14h2M1 15h2M29 15h2M1 16h2M29 16h2M1 17h2M29 17h2M1 18h2M29 18h2M1 19h2M29 19h2M1 20h2M29 20h2M1 21h2M29 21h2M1 22h3M28 22h3M1 23h3M28 23h3M1 24h4M27 24h4M1 25h6M25 25h6M1 26h9M17 26h14M1 27h30" />
    <path stroke="#4f30ff" d="M2 2h28M2 3h2M10 3h20M2 4h1M9 4h21M2 5h1M7 5h10M22 5h8M2 6h1M6 6h10M23 6h7M2 7h1M5 7h10M24 7h6M2 8h1M4 8h10M25 8h5M2 9h1M4 9h9M26 9h4M2 10h10M26 10h4M2 11h15M22 11h8M2 12h15M21 12h9M3 13h14M21 13h8M3 14h14M21 14h8M3 15h14M21 15h8M3 16h14M21 16h8M3 17h14M21 17h8M3 18h14M21 18h8M3 19h14M21 19h8M3 20h3M10 20h7M21 20h8M3 21h3M10 21h7M21 21h8M4 22h2M12 22h4M21 22h7M4 23h3M21 23h7M5 24h2M20 24h7M7 25h1M19 25h6" />
    <path stroke="#755cff" d="M4 3h6M3 4h6M3 5h4M3 6h3M3 7h2M3 8h1M3 9h1" />
    <path stroke="#ffffff" d="M17 5h5M16 6h7M15 7h9M14 8h11M13 9h13M12 10h14M17 11h5M17 12h4M17 13h4M17 14h4M17 15h4M17 16h4M17 17h4M17 18h4M17 19h4M6 20h4M17 20h4M6 21h4M17 21h4M6 22h6M16 22h5M7 23h14M7 24h13M8 25h11M10 26h7" />
    <path stroke="#1e00c2" d="M1 28h30M1 29h30" />
    <path stroke="#160092" d="M1 30h30" />
</svg>
