<svg viewBox="0 -0.5 32 32" width="32" height="32" shape-rendering="crispedges" xmlns="http://www.w3.org/2000/svg">
    <metadata>Generated for Pixelmoji (32x32 pixel conversion)</metadata>
    <path stroke="#ff6900" d="M1 1h30M1 2h1M30 2h1M1 3h1M30 3h1M1 4h1M30 4h1M1 5h1M30 5h1M1 6h1M30 6h1M1 7h1M30 7h1M1 8h1M30 8h1M1 9h1M30 9h1M1 10h1M30 10h1M1 11h1M30 11h1M1 12h1M30 12h1M1 13h2M29 13h2M1 14h2M29 14h2M1 15h2M29 15h2M1 16h2M29 16h2M1 17h2M29 17h2M1 18h2M29 18h2M1 19h2M29 19h2M1 20h2M29 20h2M1 21h2M29 21h2M1 22h3M28 22h3M1 23h3M28 23h3M1 24h4M27 24h4M1 25h6M25 25h6M1 26h30M1 27h30" />
    <path stroke="#ff7717" d="M2 2h28M2 3h2M10 3h20M2 4h1M9 4h21M2 5h1M7 5h23M2 6h1M6 6h24M2 7h1M5 7h25M2 8h1M4 8h26M2 9h1M4 9h1M6 9h8M16 9h8M27 9h3M2 10h3M8 10h6M17 10h7M27 10h3M2 11h3M9 11h5M18 11h6M27 11h3M2 12h3M10 12h4M20 12h4M27 12h3M3 13h2M12 13h2M21 13h3M27 13h2M3 14h2M13 14h1M23 14h1M27 14h2M3 15h2M27 15h2M3 16h2M27 16h2M3 17h2M13 17h1M22 17h2M27 17h2M3 18h2M11 18h3M21 18h3M27 18h2M3 19h2M10 19h4M20 19h4M27 19h2M3 20h2M9 20h5M18 20h6M27 20h2M3 21h2M7 21h7M17 21h7M27 21h2M4 22h1M6 22h8M15 22h9M27 22h1M4 23h24M5 24h22M7 25h18" />
    <path stroke="#ff9f5c" d="M4 3h6M3 4h6M3 5h4M3 6h3M3 7h2M3 8h1M3 9h1" />
    <path stroke="#ffffff" d="M5 9h1M14 9h2M24 9h3M5 10h3M14 10h3M24 10h3M5 11h4M14 11h4M24 11h3M5 12h5M14 12h6M24 12h3M5 13h7M14 13h7M24 13h3M5 14h8M14 14h9M24 14h3M5 15h22M5 16h22M5 17h8M14 17h8M24 17h3M5 18h6M14 18h7M24 18h3M5 19h5M14 19h6M24 19h3M5 20h4M14 20h4M24 20h3M5 21h2M14 21h3M24 21h3M5 22h1M14 22h1M24 22h3" />
    <path stroke="#ca5300" d="M1 28h30M1 29h30" />
    <path stroke="#9d4100" d="M1 30h30" />
</svg>
