<svg viewBox="0 -0.5 32 32" width="32" height="32" shape-rendering="crispedges" xmlns="http://www.w3.org/2000/svg">
    <metadata>Generated for Pixelmoji (32x32 pixel conversion)</metadata>
    <path stroke="#ffcd2c" d="M25 1h1M17 3h1M8 5h1M10 5h1M12 5h1M16 5h1M26 7h1M13 16h1M23 17h2M15 19h1M19 24h1" />
    <path stroke="#aaa000" d="M25 2h4M25 3h1M28 3h1M17 4h1M24 4h1M29 4h1M9 5h1M18 5h2M24 5h2M27 5h2M5 6h3M9 6h1M26 6h1M4 7h1M6 7h1M8 7h4M4 8h2M4 9h2M4 10h2M5 11h2M5 12h2M6 13h2M7 14h2M8 15h2M23 16h2" />
    <path stroke="#fce53b" d="M26 3h2M25 4h4M17 5h1M26 5h1M8 6h1M5 7h1M7 7h1M8 10h1M9 12h1M10 13h1M11 14h1M12 15h1M10 16h1M16 20h1M17 21h1M18 22h1M19 25h1" />
    <path stroke="#c49f00" d="M15 4h2M15 5h1M29 5h2M14 6h4M17 7h1M7 8h1M7 9h1M22 16h1M22 17h1M25 17h1M22 18h3" />
    <path stroke="#d2b48c" d="M23 6h2M22 7h1M24 7h1M21 8h1M24 8h1M20 9h1M23 9h1M22 10h1M21 11h1" />
    <path stroke="#fff2cc" d="M23 7h1M22 8h2M21 9h2M20 10h2" />
    <path stroke="#505050" d="M19 10h1M18 11h1M17 12h1M20 12h1M16 13h1M19 13h1M15 14h1M18 14h1M14 15h1M17 15h1M16 16h1M13 17h1M15 17h1M12 18h1M14 18h1M11 19h1M13 19h1M10 20h1M12 20h1M9 21h1M11 21h1M8 22h1M10 22h1M7 23h1M9 23h1M6 24h1M8 24h1M5 25h1M7 25h1M6 26h1" />
    <path stroke="#676767" d="M19 11h2M18 12h2M17 13h2M16 14h2M15 15h2M14 16h2M14 17h1M13 18h1M12 19h1M11 20h1M10 21h1M9 22h1M8 23h1M7 24h1M6 25h1" />
    <path stroke="#aeaeae" d="M4 26h1M3 27h1M5 27h1M2 28h1M4 28h1M1 29h1M3 29h1M2 30h1" />
    <path stroke="#e4e4e4" d="M5 26h1M4 27h1M3 28h1M2 29h1M1 30h1" />
    <path stroke="#899299" d="M0 30h1M1 31h1" />
</svg>
