<svg viewBox="0 -0.5 32 32" width="32" height="32" shape-rendering="crispedges" xmlns="http://www.w3.org/2000/svg">
    <metadata>Generated for Pixelmoji (32x32 pixel conversion)</metadata>
    <path stroke="#899299" d="M15 0h2M13 1h2M17 1h1M11 2h2M18 2h2M7 3h4M20 3h4M2 4h5M24 4h5M2 5h1M28 5h1M2 6h1M28 6h1M2 7h1M28 7h1M2 8h1M28 8h1M2 9h1M28 9h1M2 10h1M28 10h1M2 11h1M27 11h1M2 12h1M27 12h1M3 13h1M27 13h1M3 14h1M27 14h1M3 15h1M27 15h1M3 16h1M26 16h1M4 17h1M26 17h1M4 18h1M26 18h1M4 19h1M26 19h1M5 20h1M25 20h1M5 21h1M25 21h1M6 22h1M24 22h1M6 23h1M24 23h1M7 24h1M23 24h1M7 25h1M23 25h1M8 26h1M22 26h1M9 27h1M21 27h1M10 28h1M20 28h1M11 29h1M19 29h1M12 30h2M17 30h2M14 31h3" />
    <path stroke="#98acb7" d="M15 1h2M15 2h2M16 3h4M18 4h6M20 5h7M6 6h1M24 6h4M26 7h2M26 8h1M26 9h2M5 10h1M26 10h2M26 11h1M4 12h1M26 12h1M26 13h1M25 14h2M25 15h2M25 16h1M25 17h1M24 18h2M24 19h2M24 20h1M23 21h2M23 22h1M22 23h2M21 24h2M20 25h3M19 26h2M18 27h3M16 28h2M19 28h1M12 29h1M16 29h3M16 30h1" />
    <path stroke="#ebebeb" d="M13 2h1M10 4h1M3 5h1M3 8h1M3 12h1M4 16h1M7 23h1M9 26h1M12 28h1M15 30h1" />
    <path stroke="#abc2cf" d="M14 2h1M11 3h4M7 4h3M11 4h2M16 4h1M4 5h7M16 5h2M3 6h2M16 6h5M3 7h2M16 7h9M4 8h1M16 8h9M3 9h2M16 9h9M3 10h2M16 10h9M3 11h2M16 11h9M16 12h9M4 13h1M16 13h9M4 14h2M16 14h9M4 15h2M16 15h8M5 16h1M16 16h8M5 17h1M16 17h8M5 18h2M16 18h8M5 19h2M16 19h7M6 20h1M16 20h7M6 21h2M16 21h6M7 22h2M16 22h6M8 23h1M16 23h5M8 24h2M16 24h4M8 25h3M16 25h3M10 26h2M16 26h2M10 27h3M15 27h2M11 28h1M13 28h2M13 29h3M14 30h1" />
    <path stroke="#add8e6" d="M17 2h1M27 5h1M27 8h1M21 26h1M18 28h1" />
    <path stroke="#2d7688" d="M15 3h1M13 4h2M17 4h1M11 5h2M18 5h2M5 6h1M7 6h3M21 6h3M5 7h1M25 7h1M5 8h1M25 8h1M5 9h1M25 9h1M25 10h1M5 11h1M25 11h1M5 12h1M25 12h1M5 13h1M25 13h1M6 15h1M24 15h1M6 16h1M24 16h1M6 17h1M24 17h1M7 18h1M7 19h1M23 19h1M7 20h1M23 20h1M8 21h1M22 21h1M22 22h1M9 23h1M21 23h1M10 24h1M20 24h1M11 25h1M19 25h1M12 26h1M18 26h1M13 27h2M17 27h1M15 28h1" />
    <path stroke="#e0f7fa" d="M15 4h1M13 5h3M10 6h6M6 7h10M6 8h10M6 9h10M6 10h10M6 11h10M6 12h10M6 13h10M6 14h10M7 15h9M7 16h9M7 17h9M8 18h8M8 19h8M8 20h8M9 21h7M9 22h7M10 23h6M11 24h5M12 25h4M13 26h3" />
</svg>
