<svg viewBox="0 -0.5 32 32" width="32" height="32" shape-rendering="crispedges" xmlns="http://www.w3.org/2000/svg">
    <metadata>Generated for Pixelmoji (32x32 pixel conversion)</metadata>
    <path stroke="#ff6900" d="M1 1h30M1 2h1M30 2h1M1 3h1M30 3h1M1 4h1M30 4h1M1 5h1M30 5h1M1 6h1M30 6h1M1 7h1M30 7h1M1 8h1M30 8h1M1 9h1M30 9h1M1 10h1M30 10h1M1 11h1M30 11h1M1 12h1M30 12h1M1 13h2M29 13h2M1 14h2M29 14h2M1 15h2M29 15h2M1 16h2M29 16h2M1 17h2M29 17h2M1 18h2M29 18h2M1 19h2M29 19h2M1 20h2M29 20h2M1 21h2M29 21h2M1 22h3M28 22h3M1 23h3M28 23h3M1 24h4M27 24h4M1 25h6M25 25h6M1 26h30M1 27h30" />
    <path stroke="#ff7717" d="M2 2h28M2 3h2M10 3h20M2 4h1M9 4h21M2 5h1M7 5h23M2 6h1M6 6h24M2 7h1M5 7h25M2 8h1M4 8h26M2 9h1M4 9h11M17 9h13M2 10h13M17 10h13M2 11h12M18 11h12M2 12h12M19 12h11M3 13h10M19 13h10M3 14h10M20 14h9M3 15h9M20 15h9M3 16h8M21 16h8M3 17h8M21 17h8M3 18h7M22 18h7M3 19h7M23 19h6M3 20h6M23 20h6M3 21h6M24 21h5M4 22h4M24 22h4M4 23h24M5 24h22M7 25h18" />
    <path stroke="#ff9f5c" d="M4 3h6M3 4h6M3 5h4M3 6h3M3 7h2M3 8h1M3 9h1" />
    <path stroke="#ffffff" d="M15 9h2M15 10h2M14 11h4M14 12h5M13 13h6M13 14h7M12 15h8M11 16h10M11 17h10M10 18h12M10 19h13M9 20h14M9 21h15M8 22h16" />
    <path stroke="#ca5300" d="M1 28h30M1 29h30" />
    <path stroke="#9d4100" d="M1 30h30" />
</svg>
